# xmcd
# Copyright (C) 1995-1998 Ti Kan
#
# Track frame offsets:
#       150
#       18001
#       30830
#       49452
#       57948
#       70792
#       89592
#       100615
#       119191
#       131887
#       158292
#       168015
#       181988
#       202113
#       216871
#       233399
#       248396
#
# Disc length: 3521 seconds
#
# Revision: 0
# Processed by: cddbd v1.5.2PL0 Copyright (c) Steve Scherf et al.
# Submitted via: CD-Transfer v1.0
#
DISCID=d70dbf11
DTITLE=Georg Clementi - Anno Clementi
DYEAR=07
DGENRE=
TTITLE0=In Diesem Neuen Jahr
TTITLE1=Holt
TTITLE2=Vogelfrei
TTITLE3=Un Nuovo Amore
TTITLE4=Frühling In Der Stadt
TTITLE5=Morgen
TTITLE6=Mai
TTITLE7=Un Mare In Testa
TTITLE8=Quanto
TTITLE9=Juli
TTITLE10=Heute Soll Es Sommer Sein
TTITLE11=Im Septmeber
TTITLE12=Schlaf Süß
TTITLE13=Serata Pallida
TTITLE14=November
TTITLE15=Der Scharze Mann
TTITLE16=Wie Der Winter
EXTD=
EXTT0=
EXTT1=
EXTT2=
EXTT3=
EXTT4=
EXTT5=
EXTT6=
EXTT7=
EXTT8=
EXTT9=
EXTT10=
EXTT11=
EXTT12=
EXTT13=
EXTT14=
EXTT15=
EXTT16=
PLAYORDER=
